<mxfile host="app.diagrams.net" modified="2023-10-19T04:43:36.246Z" agent="Mozilla/5.0 (Macintosh; Intel Mac OS X 10_15_7) AppleWebKit/537.36 (KHTML, like Gecko) Chrome/118.0.0.0 Safari/537.36" etag="j5wYL43XU68sGzUit01y" version="21.3.5" type="github">
  <diagram name="Page-1" id="2ca16b54-16f6-2749-3443-fa8db7711227">
    <mxGraphModel dx="3793" dy="1736" grid="1" gridSize="10" guides="1" tooltips="1" connect="1" arrows="1" fold="1" page="1" pageScale="1" pageWidth="1100" pageHeight="850" background="none" math="0" shadow="0">
      <root>
        <mxCell id="0" />
        <mxCell id="1" parent="0" />
        <mxCell id="PQFK7sX1MM_7GFNLwXP8-8" value="entering_car_record" style="shape=table;startSize=30;container=1;collapsible=1;childLayout=tableLayout;fixedRows=1;rowLines=0;fontStyle=1;align=center;resizeLast=1;html=1;" parent="1" vertex="1">
          <mxGeometry x="-1080" y="-605" width="260" height="180" as="geometry" />
        </mxCell>
        <mxCell id="PQFK7sX1MM_7GFNLwXP8-9" value="" style="shape=tableRow;horizontal=0;startSize=0;swimlaneHead=0;swimlaneBody=0;fillColor=none;collapsible=0;dropTarget=0;points=[[0,0.5],[1,0.5]];portConstraint=eastwest;top=0;left=0;right=0;bottom=1;" parent="PQFK7sX1MM_7GFNLwXP8-8" vertex="1">
          <mxGeometry y="30" width="260" height="30" as="geometry" />
        </mxCell>
        <mxCell id="PQFK7sX1MM_7GFNLwXP8-10" value="PK" style="shape=partialRectangle;connectable=0;fillColor=none;top=0;left=0;bottom=0;right=0;fontStyle=1;overflow=hidden;whiteSpace=wrap;html=1;" parent="PQFK7sX1MM_7GFNLwXP8-9" vertex="1">
          <mxGeometry width="30" height="30" as="geometry">
            <mxRectangle width="30" height="30" as="alternateBounds" />
          </mxGeometry>
        </mxCell>
        <mxCell id="PQFK7sX1MM_7GFNLwXP8-11" value="id" style="shape=partialRectangle;connectable=0;fillColor=none;top=0;left=0;bottom=0;right=0;align=left;spacingLeft=6;fontStyle=5;overflow=hidden;whiteSpace=wrap;html=1;" parent="PQFK7sX1MM_7GFNLwXP8-9" vertex="1">
          <mxGeometry x="30" width="230" height="30" as="geometry">
            <mxRectangle width="230" height="30" as="alternateBounds" />
          </mxGeometry>
        </mxCell>
        <mxCell id="PQFK7sX1MM_7GFNLwXP8-12" value="" style="shape=tableRow;horizontal=0;startSize=0;swimlaneHead=0;swimlaneBody=0;fillColor=none;collapsible=0;dropTarget=0;points=[[0,0.5],[1,0.5]];portConstraint=eastwest;top=0;left=0;right=0;bottom=0;" parent="PQFK7sX1MM_7GFNLwXP8-8" vertex="1">
          <mxGeometry y="60" width="260" height="30" as="geometry" />
        </mxCell>
        <mxCell id="PQFK7sX1MM_7GFNLwXP8-13" value="" style="shape=partialRectangle;connectable=0;fillColor=none;top=0;left=0;bottom=0;right=0;editable=1;overflow=hidden;whiteSpace=wrap;html=1;" parent="PQFK7sX1MM_7GFNLwXP8-12" vertex="1">
          <mxGeometry width="30" height="30" as="geometry">
            <mxRectangle width="30" height="30" as="alternateBounds" />
          </mxGeometry>
        </mxCell>
        <mxCell id="PQFK7sX1MM_7GFNLwXP8-14" value="lpr_reading" style="shape=partialRectangle;connectable=0;fillColor=none;top=0;left=0;bottom=0;right=0;align=left;spacingLeft=6;overflow=hidden;whiteSpace=wrap;html=1;" parent="PQFK7sX1MM_7GFNLwXP8-12" vertex="1">
          <mxGeometry x="30" width="230" height="30" as="geometry">
            <mxRectangle width="230" height="30" as="alternateBounds" />
          </mxGeometry>
        </mxCell>
        <mxCell id="PQFK7sX1MM_7GFNLwXP8-188" style="shape=tableRow;horizontal=0;startSize=0;swimlaneHead=0;swimlaneBody=0;fillColor=none;collapsible=0;dropTarget=0;points=[[0,0.5],[1,0.5]];portConstraint=eastwest;top=0;left=0;right=0;bottom=0;" parent="PQFK7sX1MM_7GFNLwXP8-8" vertex="1">
          <mxGeometry y="90" width="260" height="30" as="geometry" />
        </mxCell>
        <mxCell id="PQFK7sX1MM_7GFNLwXP8-189" style="shape=partialRectangle;connectable=0;fillColor=none;top=0;left=0;bottom=0;right=0;editable=1;overflow=hidden;whiteSpace=wrap;html=1;" parent="PQFK7sX1MM_7GFNLwXP8-188" vertex="1">
          <mxGeometry width="30" height="30" as="geometry">
            <mxRectangle width="30" height="30" as="alternateBounds" />
          </mxGeometry>
        </mxCell>
        <mxCell id="PQFK7sX1MM_7GFNLwXP8-190" value="è¿›_timestamp" style="shape=partialRectangle;connectable=0;fillColor=none;top=0;left=0;bottom=0;right=0;align=left;spacingLeft=6;overflow=hidden;whiteSpace=wrap;html=1;" parent="PQFK7sX1MM_7GFNLwXP8-188" vertex="1">
          <mxGeometry x="30" width="230" height="30" as="geometry">
            <mxRectangle width="230" height="30" as="alternateBounds" />
          </mxGeometry>
        </mxCell>
        <mxCell id="PQFK7sX1MM_7GFNLwXP8-15" value="" style="shape=tableRow;horizontal=0;startSize=0;swimlaneHead=0;swimlaneBody=0;fillColor=none;collapsible=0;dropTarget=0;points=[[0,0.5],[1,0.5]];portConstraint=eastwest;top=0;left=0;right=0;bottom=0;" parent="PQFK7sX1MM_7GFNLwXP8-8" vertex="1">
          <mxGeometry y="120" width="260" height="30" as="geometry" />
        </mxCell>
        <mxCell id="PQFK7sX1MM_7GFNLwXP8-16" value="" style="shape=partialRectangle;connectable=0;fillColor=none;top=0;left=0;bottom=0;right=0;editable=1;overflow=hidden;whiteSpace=wrap;html=1;" parent="PQFK7sX1MM_7GFNLwXP8-15" vertex="1">
          <mxGeometry width="30" height="30" as="geometry">
            <mxRectangle width="30" height="30" as="alternateBounds" />
          </mxGeometry>
        </mxCell>
        <mxCell id="PQFK7sX1MM_7GFNLwXP8-17" value="score" style="shape=partialRectangle;connectable=0;fillColor=none;top=0;left=0;bottom=0;right=0;align=left;spacingLeft=6;overflow=hidden;whiteSpace=wrap;html=1;" parent="PQFK7sX1MM_7GFNLwXP8-15" vertex="1">
          <mxGeometry x="30" width="230" height="30" as="geometry">
            <mxRectangle width="230" height="30" as="alternateBounds" />
          </mxGeometry>
        </mxCell>
        <mxCell id="PQFK7sX1MM_7GFNLwXP8-18" value="" style="shape=tableRow;horizontal=0;startSize=0;swimlaneHead=0;swimlaneBody=0;fillColor=none;collapsible=0;dropTarget=0;points=[[0,0.5],[1,0.5]];portConstraint=eastwest;top=0;left=0;right=0;bottom=0;" parent="PQFK7sX1MM_7GFNLwXP8-8" vertex="1">
          <mxGeometry y="150" width="260" height="30" as="geometry" />
        </mxCell>
        <mxCell id="PQFK7sX1MM_7GFNLwXP8-19" value="" style="shape=partialRectangle;connectable=0;fillColor=none;top=0;left=0;bottom=0;right=0;editable=1;overflow=hidden;whiteSpace=wrap;html=1;" parent="PQFK7sX1MM_7GFNLwXP8-18" vertex="1">
          <mxGeometry width="30" height="30" as="geometry">
            <mxRectangle width="30" height="30" as="alternateBounds" />
          </mxGeometry>
        </mxCell>
        <mxCell id="PQFK7sX1MM_7GFNLwXP8-20" value="cropped_lpd_filepath" style="shape=partialRectangle;connectable=0;fillColor=none;top=0;left=0;bottom=0;right=0;align=left;spacingLeft=6;overflow=hidden;whiteSpace=wrap;html=1;" parent="PQFK7sX1MM_7GFNLwXP8-18" vertex="1">
          <mxGeometry x="30" width="230" height="30" as="geometry">
            <mxRectangle width="230" height="30" as="alternateBounds" />
          </mxGeometry>
        </mxCell>
        <mxCell id="PQFK7sX1MM_7GFNLwXP8-43" value="exiting_car_record" style="shape=table;startSize=30;container=1;collapsible=1;childLayout=tableLayout;fixedRows=1;rowLines=0;fontStyle=1;align=center;resizeLast=1;html=1;" parent="1" vertex="1">
          <mxGeometry x="-1080" y="-400" width="260" height="180" as="geometry" />
        </mxCell>
        <mxCell id="PQFK7sX1MM_7GFNLwXP8-44" value="" style="shape=tableRow;horizontal=0;startSize=0;swimlaneHead=0;swimlaneBody=0;fillColor=none;collapsible=0;dropTarget=0;points=[[0,0.5],[1,0.5]];portConstraint=eastwest;top=0;left=0;right=0;bottom=1;" parent="PQFK7sX1MM_7GFNLwXP8-43" vertex="1">
          <mxGeometry y="30" width="260" height="30" as="geometry" />
        </mxCell>
        <mxCell id="PQFK7sX1MM_7GFNLwXP8-45" value="PK" style="shape=partialRectangle;connectable=0;fillColor=none;top=0;left=0;bottom=0;right=0;fontStyle=1;overflow=hidden;whiteSpace=wrap;html=1;" parent="PQFK7sX1MM_7GFNLwXP8-44" vertex="1">
          <mxGeometry width="30" height="30" as="geometry">
            <mxRectangle width="30" height="30" as="alternateBounds" />
          </mxGeometry>
        </mxCell>
        <mxCell id="PQFK7sX1MM_7GFNLwXP8-46" value="id" style="shape=partialRectangle;connectable=0;fillColor=none;top=0;left=0;bottom=0;right=0;align=left;spacingLeft=6;fontStyle=5;overflow=hidden;whiteSpace=wrap;html=1;" parent="PQFK7sX1MM_7GFNLwXP8-44" vertex="1">
          <mxGeometry x="30" width="230" height="30" as="geometry">
            <mxRectangle width="230" height="30" as="alternateBounds" />
          </mxGeometry>
        </mxCell>
        <mxCell id="PQFK7sX1MM_7GFNLwXP8-47" value="" style="shape=tableRow;horizontal=0;startSize=0;swimlaneHead=0;swimlaneBody=0;fillColor=none;collapsible=0;dropTarget=0;points=[[0,0.5],[1,0.5]];portConstraint=eastwest;top=0;left=0;right=0;bottom=0;" parent="PQFK7sX1MM_7GFNLwXP8-43" vertex="1">
          <mxGeometry y="60" width="260" height="30" as="geometry" />
        </mxCell>
        <mxCell id="PQFK7sX1MM_7GFNLwXP8-48" value="" style="shape=partialRectangle;connectable=0;fillColor=none;top=0;left=0;bottom=0;right=0;editable=1;overflow=hidden;whiteSpace=wrap;html=1;" parent="PQFK7sX1MM_7GFNLwXP8-47" vertex="1">
          <mxGeometry width="30" height="30" as="geometry">
            <mxRectangle width="30" height="30" as="alternateBounds" />
          </mxGeometry>
        </mxCell>
        <mxCell id="PQFK7sX1MM_7GFNLwXP8-49" value="lpr_reading" style="shape=partialRectangle;connectable=0;fillColor=none;top=0;left=0;bottom=0;right=0;align=left;spacingLeft=6;overflow=hidden;whiteSpace=wrap;html=1;" parent="PQFK7sX1MM_7GFNLwXP8-47" vertex="1">
          <mxGeometry x="30" width="230" height="30" as="geometry">
            <mxRectangle width="230" height="30" as="alternateBounds" />
          </mxGeometry>
        </mxCell>
        <mxCell id="PQFK7sX1MM_7GFNLwXP8-191" style="shape=tableRow;horizontal=0;startSize=0;swimlaneHead=0;swimlaneBody=0;fillColor=none;collapsible=0;dropTarget=0;points=[[0,0.5],[1,0.5]];portConstraint=eastwest;top=0;left=0;right=0;bottom=0;" parent="PQFK7sX1MM_7GFNLwXP8-43" vertex="1">
          <mxGeometry y="90" width="260" height="30" as="geometry" />
        </mxCell>
        <mxCell id="PQFK7sX1MM_7GFNLwXP8-192" style="shape=partialRectangle;connectable=0;fillColor=none;top=0;left=0;bottom=0;right=0;editable=1;overflow=hidden;whiteSpace=wrap;html=1;" parent="PQFK7sX1MM_7GFNLwXP8-191" vertex="1">
          <mxGeometry width="30" height="30" as="geometry">
            <mxRectangle width="30" height="30" as="alternateBounds" />
          </mxGeometry>
        </mxCell>
        <mxCell id="PQFK7sX1MM_7GFNLwXP8-193" value="å‡º_timestamp" style="shape=partialRectangle;connectable=0;fillColor=none;top=0;left=0;bottom=0;right=0;align=left;spacingLeft=6;overflow=hidden;whiteSpace=wrap;html=1;" parent="PQFK7sX1MM_7GFNLwXP8-191" vertex="1">
          <mxGeometry x="30" width="230" height="30" as="geometry">
            <mxRectangle width="230" height="30" as="alternateBounds" />
          </mxGeometry>
        </mxCell>
        <mxCell id="PQFK7sX1MM_7GFNLwXP8-50" value="" style="shape=tableRow;horizontal=0;startSize=0;swimlaneHead=0;swimlaneBody=0;fillColor=none;collapsible=0;dropTarget=0;points=[[0,0.5],[1,0.5]];portConstraint=eastwest;top=0;left=0;right=0;bottom=0;" parent="PQFK7sX1MM_7GFNLwXP8-43" vertex="1">
          <mxGeometry y="120" width="260" height="30" as="geometry" />
        </mxCell>
        <mxCell id="PQFK7sX1MM_7GFNLwXP8-51" value="" style="shape=partialRectangle;connectable=0;fillColor=none;top=0;left=0;bottom=0;right=0;editable=1;overflow=hidden;whiteSpace=wrap;html=1;" parent="PQFK7sX1MM_7GFNLwXP8-50" vertex="1">
          <mxGeometry width="30" height="30" as="geometry">
            <mxRectangle width="30" height="30" as="alternateBounds" />
          </mxGeometry>
        </mxCell>
        <mxCell id="PQFK7sX1MM_7GFNLwXP8-52" value="score" style="shape=partialRectangle;connectable=0;fillColor=none;top=0;left=0;bottom=0;right=0;align=left;spacingLeft=6;overflow=hidden;whiteSpace=wrap;html=1;" parent="PQFK7sX1MM_7GFNLwXP8-50" vertex="1">
          <mxGeometry x="30" width="230" height="30" as="geometry">
            <mxRectangle width="230" height="30" as="alternateBounds" />
          </mxGeometry>
        </mxCell>
        <mxCell id="PQFK7sX1MM_7GFNLwXP8-56" style="shape=tableRow;horizontal=0;startSize=0;swimlaneHead=0;swimlaneBody=0;fillColor=none;collapsible=0;dropTarget=0;points=[[0,0.5],[1,0.5]];portConstraint=eastwest;top=0;left=0;right=0;bottom=0;" parent="PQFK7sX1MM_7GFNLwXP8-43" vertex="1">
          <mxGeometry y="150" width="260" height="30" as="geometry" />
        </mxCell>
        <mxCell id="PQFK7sX1MM_7GFNLwXP8-57" value="" style="shape=partialRectangle;connectable=0;fillColor=none;top=0;left=0;bottom=0;right=0;editable=1;overflow=hidden;whiteSpace=wrap;html=1;" parent="PQFK7sX1MM_7GFNLwXP8-56" vertex="1">
          <mxGeometry width="30" height="30" as="geometry">
            <mxRectangle width="30" height="30" as="alternateBounds" />
          </mxGeometry>
        </mxCell>
        <mxCell id="PQFK7sX1MM_7GFNLwXP8-58" value="cropped_lpd_filepath" style="shape=partialRectangle;connectable=0;fillColor=none;top=0;left=0;bottom=0;right=0;align=left;spacingLeft=6;overflow=hidden;whiteSpace=wrap;html=1;" parent="PQFK7sX1MM_7GFNLwXP8-56" vertex="1">
          <mxGeometry x="30" width="230" height="30" as="geometry">
            <mxRectangle width="230" height="30" as="alternateBounds" />
          </mxGeometry>
        </mxCell>
        <mxCell id="PQFK7sX1MM_7GFNLwXP8-124" value="vehicle_flow_timestamp_log" style="shape=table;startSize=30;container=1;collapsible=1;childLayout=tableLayout;fixedRows=1;rowLines=0;fontStyle=1;align=center;resizeLast=1;html=1;" parent="1" vertex="1">
          <mxGeometry x="-1490" y="-635" width="260" height="330" as="geometry" />
        </mxCell>
        <mxCell id="PQFK7sX1MM_7GFNLwXP8-125" value="" style="shape=tableRow;horizontal=0;startSize=0;swimlaneHead=0;swimlaneBody=0;fillColor=none;collapsible=0;dropTarget=0;points=[[0,0.5],[1,0.5]];portConstraint=eastwest;top=0;left=0;right=0;bottom=1;" parent="PQFK7sX1MM_7GFNLwXP8-124" vertex="1">
          <mxGeometry y="30" width="260" height="30" as="geometry" />
        </mxCell>
        <mxCell id="PQFK7sX1MM_7GFNLwXP8-126" value="PK" style="shape=partialRectangle;connectable=0;fillColor=none;top=0;left=0;bottom=0;right=0;fontStyle=1;overflow=hidden;whiteSpace=wrap;html=1;" parent="PQFK7sX1MM_7GFNLwXP8-125" vertex="1">
          <mxGeometry width="30" height="30" as="geometry">
            <mxRectangle width="30" height="30" as="alternateBounds" />
          </mxGeometry>
        </mxCell>
        <mxCell id="PQFK7sX1MM_7GFNLwXP8-127" value="id" style="shape=partialRectangle;connectable=0;fillColor=none;top=0;left=0;bottom=0;right=0;align=left;spacingLeft=6;fontStyle=5;overflow=hidden;whiteSpace=wrap;html=1;" parent="PQFK7sX1MM_7GFNLwXP8-125" vertex="1">
          <mxGeometry x="30" width="230" height="30" as="geometry">
            <mxRectangle width="230" height="30" as="alternateBounds" />
          </mxGeometry>
        </mxCell>
        <mxCell id="PQFK7sX1MM_7GFNLwXP8-179" style="shape=tableRow;horizontal=0;startSize=0;swimlaneHead=0;swimlaneBody=0;fillColor=none;collapsible=0;dropTarget=0;points=[[0,0.5],[1,0.5]];portConstraint=eastwest;top=0;left=0;right=0;bottom=0;" parent="PQFK7sX1MM_7GFNLwXP8-124" vertex="1">
          <mxGeometry y="60" width="260" height="30" as="geometry" />
        </mxCell>
        <mxCell id="PQFK7sX1MM_7GFNLwXP8-180" value="FK" style="shape=partialRectangle;connectable=0;fillColor=none;top=0;left=0;bottom=0;right=0;editable=1;overflow=hidden;whiteSpace=wrap;html=1;" parent="PQFK7sX1MM_7GFNLwXP8-179" vertex="1">
          <mxGeometry width="30" height="30" as="geometry">
            <mxRectangle width="30" height="30" as="alternateBounds" />
          </mxGeometry>
        </mxCell>
        <mxCell id="PQFK7sX1MM_7GFNLwXP8-181" value="è¿›car_record_index_id" style="shape=partialRectangle;connectable=0;fillColor=none;top=0;left=0;bottom=0;right=0;align=left;spacingLeft=6;overflow=hidden;whiteSpace=wrap;html=1;" parent="PQFK7sX1MM_7GFNLwXP8-179" vertex="1">
          <mxGeometry x="30" width="230" height="30" as="geometry">
            <mxRectangle width="230" height="30" as="alternateBounds" />
          </mxGeometry>
        </mxCell>
        <mxCell id="PQFK7sX1MM_7GFNLwXP8-173" style="shape=tableRow;horizontal=0;startSize=0;swimlaneHead=0;swimlaneBody=0;fillColor=none;collapsible=0;dropTarget=0;points=[[0,0.5],[1,0.5]];portConstraint=eastwest;top=0;left=0;right=0;bottom=0;" parent="PQFK7sX1MM_7GFNLwXP8-124" vertex="1">
          <mxGeometry y="90" width="260" height="30" as="geometry" />
        </mxCell>
        <mxCell id="PQFK7sX1MM_7GFNLwXP8-174" value="MV" style="shape=partialRectangle;connectable=0;fillColor=none;top=0;left=0;bottom=0;right=0;editable=1;overflow=hidden;whiteSpace=wrap;html=1;" parent="PQFK7sX1MM_7GFNLwXP8-173" vertex="1">
          <mxGeometry width="30" height="30" as="geometry">
            <mxRectangle width="30" height="30" as="alternateBounds" />
          </mxGeometry>
        </mxCell>
        <mxCell id="PQFK7sX1MM_7GFNLwXP8-175" value="è¿›_timestamp" style="shape=partialRectangle;connectable=0;fillColor=none;top=0;left=0;bottom=0;right=0;align=left;spacingLeft=6;overflow=hidden;whiteSpace=wrap;html=1;" parent="PQFK7sX1MM_7GFNLwXP8-173" vertex="1">
          <mxGeometry x="30" width="230" height="30" as="geometry">
            <mxRectangle width="230" height="30" as="alternateBounds" />
          </mxGeometry>
        </mxCell>
        <mxCell id="J8i6EdS4FgNd71ECk8Dx-4" style="shape=tableRow;horizontal=0;startSize=0;swimlaneHead=0;swimlaneBody=0;fillColor=none;collapsible=0;dropTarget=0;points=[[0,0.5],[1,0.5]];portConstraint=eastwest;top=0;left=0;right=0;bottom=0;" vertex="1" parent="PQFK7sX1MM_7GFNLwXP8-124">
          <mxGeometry y="120" width="260" height="30" as="geometry" />
        </mxCell>
        <mxCell id="J8i6EdS4FgNd71ECk8Dx-5" value="GV" style="shape=partialRectangle;connectable=0;fillColor=none;top=0;left=0;bottom=0;right=0;editable=1;overflow=hidden;whiteSpace=wrap;html=1;" vertex="1" parent="J8i6EdS4FgNd71ECk8Dx-4">
          <mxGeometry width="30" height="30" as="geometry">
            <mxRectangle width="30" height="30" as="alternateBounds" />
          </mxGeometry>
        </mxCell>
        <mxCell id="J8i6EdS4FgNd71ECk8Dx-6" value="è¿›Day" style="shape=partialRectangle;connectable=0;fillColor=none;top=0;left=0;bottom=0;right=0;align=left;spacingLeft=6;overflow=hidden;whiteSpace=wrap;html=1;" vertex="1" parent="J8i6EdS4FgNd71ECk8Dx-4">
          <mxGeometry x="30" width="230" height="30" as="geometry">
            <mxRectangle width="230" height="30" as="alternateBounds" />
          </mxGeometry>
        </mxCell>
        <mxCell id="PQFK7sX1MM_7GFNLwXP8-182" style="shape=tableRow;horizontal=0;startSize=0;swimlaneHead=0;swimlaneBody=0;fillColor=none;collapsible=0;dropTarget=0;points=[[0,0.5],[1,0.5]];portConstraint=eastwest;top=0;left=0;right=0;bottom=0;" parent="PQFK7sX1MM_7GFNLwXP8-124" vertex="1">
          <mxGeometry y="150" width="260" height="30" as="geometry" />
        </mxCell>
        <mxCell id="PQFK7sX1MM_7GFNLwXP8-183" value="FK" style="shape=partialRectangle;connectable=0;fillColor=none;top=0;left=0;bottom=0;right=0;editable=1;overflow=hidden;whiteSpace=wrap;html=1;" parent="PQFK7sX1MM_7GFNLwXP8-182" vertex="1">
          <mxGeometry width="30" height="30" as="geometry">
            <mxRectangle width="30" height="30" as="alternateBounds" />
          </mxGeometry>
        </mxCell>
        <mxCell id="PQFK7sX1MM_7GFNLwXP8-184" value="å‡ºcar_record_index_id" style="shape=partialRectangle;connectable=0;fillColor=none;top=0;left=0;bottom=0;right=0;align=left;spacingLeft=6;overflow=hidden;whiteSpace=wrap;html=1;" parent="PQFK7sX1MM_7GFNLwXP8-182" vertex="1">
          <mxGeometry x="30" width="230" height="30" as="geometry">
            <mxRectangle width="230" height="30" as="alternateBounds" />
          </mxGeometry>
        </mxCell>
        <mxCell id="PQFK7sX1MM_7GFNLwXP8-170" style="shape=tableRow;horizontal=0;startSize=0;swimlaneHead=0;swimlaneBody=0;fillColor=none;collapsible=0;dropTarget=0;points=[[0,0.5],[1,0.5]];portConstraint=eastwest;top=0;left=0;right=0;bottom=0;" parent="PQFK7sX1MM_7GFNLwXP8-124" vertex="1">
          <mxGeometry y="180" width="260" height="30" as="geometry" />
        </mxCell>
        <mxCell id="PQFK7sX1MM_7GFNLwXP8-171" value="MV" style="shape=partialRectangle;connectable=0;fillColor=none;top=0;left=0;bottom=0;right=0;editable=1;overflow=hidden;whiteSpace=wrap;html=1;" parent="PQFK7sX1MM_7GFNLwXP8-170" vertex="1">
          <mxGeometry width="30" height="30" as="geometry">
            <mxRectangle width="30" height="30" as="alternateBounds" />
          </mxGeometry>
        </mxCell>
        <mxCell id="PQFK7sX1MM_7GFNLwXP8-172" value="å‡º_timestamp" style="shape=partialRectangle;connectable=0;fillColor=none;top=0;left=0;bottom=0;right=0;align=left;spacingLeft=6;overflow=hidden;whiteSpace=wrap;html=1;" parent="PQFK7sX1MM_7GFNLwXP8-170" vertex="1">
          <mxGeometry x="30" width="230" height="30" as="geometry">
            <mxRectangle width="230" height="30" as="alternateBounds" />
          </mxGeometry>
        </mxCell>
        <mxCell id="J8i6EdS4FgNd71ECk8Dx-7" style="shape=tableRow;horizontal=0;startSize=0;swimlaneHead=0;swimlaneBody=0;fillColor=none;collapsible=0;dropTarget=0;points=[[0,0.5],[1,0.5]];portConstraint=eastwest;top=0;left=0;right=0;bottom=0;" vertex="1" parent="PQFK7sX1MM_7GFNLwXP8-124">
          <mxGeometry y="210" width="260" height="30" as="geometry" />
        </mxCell>
        <mxCell id="J8i6EdS4FgNd71ECk8Dx-8" value="GV" style="shape=partialRectangle;connectable=0;fillColor=none;top=0;left=0;bottom=0;right=0;editable=1;overflow=hidden;whiteSpace=wrap;html=1;" vertex="1" parent="J8i6EdS4FgNd71ECk8Dx-7">
          <mxGeometry width="30" height="30" as="geometry">
            <mxRectangle width="30" height="30" as="alternateBounds" />
          </mxGeometry>
        </mxCell>
        <mxCell id="J8i6EdS4FgNd71ECk8Dx-9" value="å‡ºDay" style="shape=partialRectangle;connectable=0;fillColor=none;top=0;left=0;bottom=0;right=0;align=left;spacingLeft=6;overflow=hidden;whiteSpace=wrap;html=1;" vertex="1" parent="J8i6EdS4FgNd71ECk8Dx-7">
          <mxGeometry x="30" width="230" height="30" as="geometry">
            <mxRectangle width="230" height="30" as="alternateBounds" />
          </mxGeometry>
        </mxCell>
        <mxCell id="PQFK7sX1MM_7GFNLwXP8-131" value="" style="shape=tableRow;horizontal=0;startSize=0;swimlaneHead=0;swimlaneBody=0;fillColor=none;collapsible=0;dropTarget=0;points=[[0,0.5],[1,0.5]];portConstraint=eastwest;top=0;left=0;right=0;bottom=0;" parent="PQFK7sX1MM_7GFNLwXP8-124" vertex="1">
          <mxGeometry y="240" width="260" height="30" as="geometry" />
        </mxCell>
        <mxCell id="PQFK7sX1MM_7GFNLwXP8-132" value="GV" style="shape=partialRectangle;connectable=0;fillColor=none;top=0;left=0;bottom=0;right=0;editable=1;overflow=hidden;whiteSpace=wrap;html=1;" parent="PQFK7sX1MM_7GFNLwXP8-131" vertex="1">
          <mxGeometry width="30" height="30" as="geometry">
            <mxRectangle width="30" height="30" as="alternateBounds" />
          </mxGeometry>
        </mxCell>
        <mxCell id="PQFK7sX1MM_7GFNLwXP8-133" value="total_parking_secs" style="shape=partialRectangle;connectable=0;fillColor=none;top=0;left=0;bottom=0;right=0;align=left;spacingLeft=6;overflow=hidden;whiteSpace=wrap;html=1;" parent="PQFK7sX1MM_7GFNLwXP8-131" vertex="1">
          <mxGeometry x="30" width="230" height="30" as="geometry">
            <mxRectangle width="230" height="30" as="alternateBounds" />
          </mxGeometry>
        </mxCell>
        <mxCell id="PQFK7sX1MM_7GFNLwXP8-134" value="" style="shape=tableRow;horizontal=0;startSize=0;swimlaneHead=0;swimlaneBody=0;fillColor=none;collapsible=0;dropTarget=0;points=[[0,0.5],[1,0.5]];portConstraint=eastwest;top=0;left=0;right=0;bottom=0;" parent="PQFK7sX1MM_7GFNLwXP8-124" vertex="1">
          <mxGeometry y="270" width="260" height="30" as="geometry" />
        </mxCell>
        <mxCell id="PQFK7sX1MM_7GFNLwXP8-135" value="GV" style="shape=partialRectangle;connectable=0;fillColor=none;top=0;left=0;bottom=0;right=0;editable=1;overflow=hidden;whiteSpace=wrap;html=1;" parent="PQFK7sX1MM_7GFNLwXP8-134" vertex="1">
          <mxGeometry width="30" height="30" as="geometry">
            <mxRectangle width="30" height="30" as="alternateBounds" />
          </mxGeometry>
        </mxCell>
        <mxCell id="PQFK7sX1MM_7GFNLwXP8-136" value="total_parking_hrs_converted" style="shape=partialRectangle;connectable=0;fillColor=none;top=0;left=0;bottom=0;right=0;align=left;spacingLeft=6;overflow=hidden;whiteSpace=wrap;html=1;" parent="PQFK7sX1MM_7GFNLwXP8-134" vertex="1">
          <mxGeometry x="30" width="230" height="30" as="geometry">
            <mxRectangle width="230" height="30" as="alternateBounds" />
          </mxGeometry>
        </mxCell>
        <mxCell id="PQFK7sX1MM_7GFNLwXP8-137" style="shape=tableRow;horizontal=0;startSize=0;swimlaneHead=0;swimlaneBody=0;fillColor=none;collapsible=0;dropTarget=0;points=[[0,0.5],[1,0.5]];portConstraint=eastwest;top=0;left=0;right=0;bottom=0;" parent="PQFK7sX1MM_7GFNLwXP8-124" vertex="1">
          <mxGeometry y="300" width="260" height="30" as="geometry" />
        </mxCell>
        <mxCell id="PQFK7sX1MM_7GFNLwXP8-138" value="GV" style="shape=partialRectangle;connectable=0;fillColor=none;top=0;left=0;bottom=0;right=0;editable=1;overflow=hidden;whiteSpace=wrap;html=1;" parent="PQFK7sX1MM_7GFNLwXP8-137" vertex="1">
          <mxGeometry width="30" height="30" as="geometry">
            <mxRectangle width="30" height="30" as="alternateBounds" />
          </mxGeometry>
        </mxCell>
        <mxCell id="PQFK7sX1MM_7GFNLwXP8-139" value="bill" style="shape=partialRectangle;connectable=0;fillColor=none;top=0;left=0;bottom=0;right=0;align=left;spacingLeft=6;overflow=hidden;whiteSpace=wrap;html=1;" parent="PQFK7sX1MM_7GFNLwXP8-137" vertex="1">
          <mxGeometry x="30" width="230" height="30" as="geometry">
            <mxRectangle width="230" height="30" as="alternateBounds" />
          </mxGeometry>
        </mxCell>
        <mxCell id="PQFK7sX1MM_7GFNLwXP8-186" value="" style="edgeStyle=entityRelationEdgeStyle;fontSize=12;html=1;endArrow=ERmandOne;startArrow=ERmandOne;rounded=0;entryX=0;entryY=0.5;entryDx=0;entryDy=0;" parent="1" source="PQFK7sX1MM_7GFNLwXP8-179" target="PQFK7sX1MM_7GFNLwXP8-9" edge="1">
          <mxGeometry width="100" height="100" relative="1" as="geometry">
            <mxPoint x="-1290" y="-300" as="sourcePoint" />
            <mxPoint x="-1190" y="-400" as="targetPoint" />
          </mxGeometry>
        </mxCell>
        <mxCell id="PQFK7sX1MM_7GFNLwXP8-187" value="" style="edgeStyle=entityRelationEdgeStyle;fontSize=12;html=1;endArrow=ERmandOne;startArrow=ERmandOne;rounded=0;exitX=1;exitY=0.5;exitDx=0;exitDy=0;entryX=0;entryY=0.5;entryDx=0;entryDy=0;" parent="1" source="PQFK7sX1MM_7GFNLwXP8-182" edge="1" target="PQFK7sX1MM_7GFNLwXP8-44">
          <mxGeometry width="100" height="100" relative="1" as="geometry">
            <mxPoint x="-1210" y="-530.0000000000001" as="sourcePoint" />
            <mxPoint x="-1080" y="-320" as="targetPoint" />
            <Array as="points">
              <mxPoint x="-1110" y="-430" />
              <mxPoint x="-1110" y="-420" />
            </Array>
          </mxGeometry>
        </mxCell>
        <mxCell id="PQFK7sX1MM_7GFNLwXP8-195" style="edgeStyle=orthogonalEdgeStyle;rounded=0;orthogonalLoop=1;jettySize=auto;html=1;exitX=0;exitY=0.5;exitDx=0;exitDy=0;entryX=1;entryY=0.5;entryDx=0;entryDy=0;dashed=1;dashPattern=1 1;" parent="1" source="PQFK7sX1MM_7GFNLwXP8-188" target="PQFK7sX1MM_7GFNLwXP8-173" edge="1">
          <mxGeometry relative="1" as="geometry">
            <Array as="points">
              <mxPoint x="-1110" y="-500" />
              <mxPoint x="-1110" y="-530" />
            </Array>
          </mxGeometry>
        </mxCell>
        <mxCell id="PQFK7sX1MM_7GFNLwXP8-199" style="edgeStyle=orthogonalEdgeStyle;rounded=0;orthogonalLoop=1;jettySize=auto;html=1;entryX=1;entryY=0.5;entryDx=0;entryDy=0;dashed=1;dashPattern=1 1;exitX=0;exitY=0.5;exitDx=0;exitDy=0;" parent="1" source="PQFK7sX1MM_7GFNLwXP8-191" target="PQFK7sX1MM_7GFNLwXP8-170" edge="1">
          <mxGeometry relative="1" as="geometry">
            <Array as="points">
              <mxPoint x="-1200" y="-295" />
              <mxPoint x="-1200" y="-440" />
            </Array>
          </mxGeometry>
        </mxCell>
        <mxCell id="PQFK7sX1MM_7GFNLwXP8-204" value="1. car enters and is subject to entry LPR&lt;br&gt;2. create entering_car_record row entry&lt;br&gt;3. create vehicle_flow_timestamp row entry&lt;br&gt;4. push è¿› timestamp as a MV and entering_car_record_id as a FK in vehicle_flow_timestamp_log row entry&amp;nbsp;&lt;br&gt;5. car exits and is subject to exit LPR&lt;br&gt;6. create exiting_car_record row entry&lt;br&gt;6. find the &lt;i&gt;latest&lt;/i&gt;&amp;nbsp;PK within entering_car_record table that matches the lpr_reading.&lt;br&gt;7.&amp;nbsp; Locate that PK within the vehicle_flow_timestamp_log&#39;s entering_car_record_index_id FK&lt;br&gt;8. Push exiting_car_record_id as FK in that specifc vehicle_flow_timestamp_log row entry&lt;br&gt;9.automatically calculate total time in secs and hours, and the bill" style="whiteSpace=wrap;html=1;shape=mxgraph.basic.document;align=left;spacingLeft=5;spacingRight=5;spacingTop=2;spacingBottom=2;" parent="1" vertex="1">
          <mxGeometry x="-1820" y="-590" width="280" height="275" as="geometry" />
        </mxCell>
        <mxCell id="J8i6EdS4FgNd71ECk8Dx-10" value="" style="whiteSpace=wrap;html=1;shape=mxgraph.basic.document;align=left;spacingLeft=5;spacingRight=5;spacingTop=2;spacingBottom=2;" vertex="1" parent="1">
          <mxGeometry x="-1490" y="-700" width="670" height="35" as="geometry" />
        </mxCell>
        <mxCell id="J8i6EdS4FgNd71ECk8Dx-11" value="" style="whiteSpace=wrap;html=1;shape=mxgraph.basic.document;align=left;spacingLeft=5;spacingRight=5;spacingTop=2;spacingBottom=2;" vertex="1" parent="1">
          <mxGeometry x="-1490" y="-190" width="670" height="35" as="geometry" />
        </mxCell>
        <mxCell id="J8i6EdS4FgNd71ECk8Dx-13" value="1. car enters and is subject to entry LPR&lt;br&gt;2. create entering_car_record row entry&lt;br&gt;3. create vehicle_flow_timestamp row entry&lt;br&gt;4. push è¿› timestamp as a MV and entering_car_record_id as a FK in vehicle_flow_timestamp_log row entry&amp;nbsp;&lt;br&gt;5. car exits and is subject to exit LPR&lt;br&gt;6. create exiting_car_record row entry&lt;br&gt;6. find the &lt;i&gt;latest&lt;/i&gt;&amp;nbsp;PK within entering_car_record table that matches the lpr_reading.&lt;br&gt;7.&amp;nbsp; Locate that PK within the vehicle_flow_timestamp_log&#39;s entering_car_record_index_id FK&lt;br&gt;8. Push exiting_car_record_id as FK in that specifc vehicle_flow_timestamp_log row entry&lt;br&gt;9.automatically calculate total time in secs and hours, and the bill" style="whiteSpace=wrap;html=1;shape=mxgraph.basic.document;align=left;spacingLeft=5;spacingRight=5;spacingTop=2;spacingBottom=2;" vertex="1" parent="1">
          <mxGeometry x="-760" y="-562" width="280" height="275" as="geometry" />
        </mxCell>
      </root>
    </mxGraphModel>
  </diagram>
</mxfile>
